<?xml version="1.0" encoding="UTF-8"?>
<svg id="Layer_1" data-name="Layer 1" xmlns="http://www.w3.org/2000/svg" viewBox="0 0 1222.3 1088.53">
  <defs>
    <style>
      .cls-1 {
        fill: #de8ae4;
      }

      .cls-2 {
        fill: #fefe68;
      }
    </style>
  </defs>
  <path class="cls-2" d="M86.92,302.67l-.05,39.75c3.15,4.59.58,12.65,1.38,18.31,1.17,8.33,2.33,16.32,4.09,23.84.98,4.18.34,12.37,1.39,16.71,1.13,4.68,1.54,10.01,2.72,14.93,2.78,11.62,5.59,23.66,8.14,35.29,1.88,8.55,5.96,18.6,8.15,28.5,2.01,9.1,8.51,20.54,10.86,31.22,1.05,4.77,6.98,11.97,8.13,17.21,2.69,12.23,11.92,26.52,17.62,38.09,1.7,3.45,1.29,1.44,2.14,2.56s.3,3.36.65,4.54c.14.47,3.3,5.38,4.06,6.78,4.18,7.63,9,15.01,13.49,22.79,1.82,3.14,4.52,5.22,5.84,7.54.41.72-.59,1.65-.21,2.59.06.14,2.01,1.21,2.36,1.73.39.57.05,1.7.44,2.28,22.04,32.7,49.34,67.22,79.93,96.08,2.06,1.94,5.86,4.23,7.41,5.66,6.94,6.42,12.89,13.11,19.94,19.05,2.2,1.86,8.1,5.39,10.44,7.22,5.89,4.62,10.02,8.16,16.29,12.22.63.41,1.22,1.99,2.13,2.42.83.4,2.28.15,3.11.69.3.2.8,2.49,2,3.22,1.07.65,5.52,2.55,6.35,3.17s2.4,3.16,3.14,3.64c1.03.65,5.54,1.73,6.19,2.18s.18,1.76.47,2c.37.32,1.63-.07,2.44.31.34.16,1.26,1.95,1.77,2.29,2.13,1.42,7.07,3.18,9.07,4.51,1.58,1.05,1.16,3.78,4.29,1.81l.06,1.96c2.34-.52,2.33.91,3.23,1.38,3.16,1.64,6.09,3.5,9.51,5.43,10.68,6,21.89,11.32,32.8,16.42,5.28,2.47,7.46,3.74,13.02,4.89,2.27.47,8.22,4.55,10.88,5.66,10.67,4.46,21.27,8.03,33.24,11.12,1.76.45,7.47,3.67,9.09,4.04,2.17.49,4.76-.5,5.04,3.07,0,1.29-1.31.65-1.48,1.99-.82,6.62.85,15.07.07,21.78-.39,3.4-1.9,5.05-1.39,9.5.65,5.72,5.24,7,10.4,5.73.46-.11.47-1.01.7-1.11.8-.32,1.78-.12,2.28-.45.32-.21,5.21-5.11,5.42-5.43,4.28-6.43,7.67-14.82,10.29-21.94.39-1.07,2.3-1.27,1.48-3.64h2.03c.12,1.16-.25,2.51.02,3.61.09.38,2.61,5.98,2.69,6.35,1.58,7.22,4.94,18.75,9.73,25.11,2.43,3.23,6.16,3.71,10.15,2.9.22-.04,3.14-2.95,3.19-3.18.24-1.24-.2-2.65.06-3.89,1.09-5.29,2.08-10.78,1.38-16.37-.16-1.3-1.3-.65-1.47-1.94-.18-1.46-.16-5.4.05-6.85.14-.99-.4-1.1,1.02-1.01,2.18.15,5.27.45,7.44.72,3.59.45,9.42,2.27,12.97,2.64,2.82.3,6.96-.51,9.34.05,5.21,1.22,7.17.72,12.37,1.32,28.29,3.28,56,3.36,84.24.08,2.33-.27,4.74.07,7.08-.06.09,1.42-.22,2.99.03,4.38.98,5.37,2.53,12,3.97,16.52,2.17,6.81,2.76,10.77,11.8,8.94.22-.04,3.06-3.01,3.18-3.21,2.35-4.08,1.91-6.01,2.76-9.88.2-.92,2.64-7.36,2.76-8.22.36-2.72-.64-6.95-.04-9.41.08-.32,2.27-1,1.35-3.18,1.67.16,3.66-.42,5.26.2.3.12,4.1,4.23,4.46,4.71.67.89,1.1,2.98,1.27,3.11.45.34,1.65-.08,2.39.32,2.74,1.48,6.27,9.33,8.56,10.41.53.25,5.96,2.23,6.29,2.27,7.01.92,8.21-10.35,7.06-15.14-.12-.51-1.2-.42-1.33-.93-.38-1.57.24-3.7.04-5.35-.15-1.25-1.27-.88-1.4-1.44-1.07-4.6.65-3.03,2.18-3.63,6.4-2.5,14.57-3.59,21.77-5.43.31-.08,4.71-2.6,5.02-2.68,1.72-.41,4.14.38,5.86-.03,3.57-.86,7.41-3.01,12.23-4.07,5.38-1.18,15.73-5.73,21.05-7.91,3.13-1.28,5.93-1.89,9.07-3.17,15.84-6.47,32.62-14.38,48.31-22.8.45-.24,1.58.19,2.04-.16.35-.26.13-2.26,1.48-2.98,1.31-.91,2.67.37,3.67.37.33,0,1.65-2.55,2.26-2.68,2.92-.64,7.27-2.61,10.15-4.32,17.47-10.37,33.25-21.84,49.32-33.49,7.33-5.31,15.73-10.83,22.66-16.73,2.09-1.78,4.25-5.11,6.49-6.78s4.01-.1,3.24-4.53c.86-.1,1.8.86,2.58.56.4-.16,4.75-5.57,5.78-6.45,7.74-6.65,16.83-14.07,23.95-22.2.59-.68.58-2,1.57-2.87.87-.76,2.48-.82,2.67-1.07.34-.44-.08-1.65.32-2.39,1.12-2.06,10.67-9.93,13.09-12.67,2.57-2.91,6.4-9.12,8.65-11.74.87-1.02,6.27-5.38,6.44-5.78.47-1.09-.76-2.39-.55-2.58.59.03,1.29.09,1.79-.24,3.19-2.11,9.74-13.03,12.51-16.88,7.68-10.67,15.84-21.31,22.83-31.96,1.5-2.28,3.09-6.8,4.52-9.07.29-.46,2.22-1.53,2.29-1.74.55-1.51-.2-3.15.5-4.64,3.5-.58,1.81-1.66,2.62-3.14.47-.85,1.51-1.78,2.58-3.7,1.9-3.42,3.75-6.39,5.43-9.5,7.36-13.6,14.51-27.69,20.54-42.43.1-.23,1-.25,1.11-.7.37-1.54-.41-3.79.1-5.22s2.49-.72,2.69-1.5c.21-.83-.28-2.13-.04-3.19.1-.45,1.02-.45,1.12-.69,4.91-11.97,8.61-24.46,13.58-36.65,1.67-4.1,4.79-13.97,5.65-17.89,1.33-6.04,4.11-12.88,5.42-19.01,3.05-14.21,6.23-29.45,9.51-43.43,1.77-7.56,1.67-16.4,2.68-24.35.16-1.3,1.3-.65,1.47-1.94.97-7.7.38-16.74,1.28-24.5.79-6.82.55-13.57,1.33-19.7.16-1.3,1.3-.65,1.47-1.94.55-4.33-.67-10.04-.11-14.34.17-1.26,1.28-.88,1.4-1.44.42-1.94-.42-2.97,1.4-4.92,3.21.22,2.31,3.21,2.69,4.92.12.52,1.22.43,1.34.92.68,2.98.91,6.84,1.45,9.98,6.82,39.83,7.24,81.93,6.76,124.31-2.79,8.53-1.54,20.56-2.72,29.86-.16,1.3-1.3.65-1.47,1.94-.6,4.74.71,10.96.11,15.7-.16,1.3-1.3.65-1.47,1.94-.6,4.74.71,10.96.11,15.7-.16,1.3-1.3.65-1.47,1.94-.94,7.43-.27,16.33-1.25,23.84-.16,1.26-1.27.89-1.4,1.44-1.35,5.74-1.25,12.88-2.7,19.58-3.82,17.71-6.03,36.43-10.92,55.48-3.01,11.7-7.48,25.35-11.58,36.59-3.33,9.12-6.69,18.51-10.35,27.46-20.51,50.17-47.54,95.59-82.58,139.19-.98,1.22-6.37,7.36-6.62,7.82-2.51,4.57-4.96,6-8.57,10.15-2.75,3.15-14.81,15.15-15.92,16.98-3.31,5.45-8.66,11-13.76,15.6-2.05,1.85-3.25,2.34-5.22,3.42-1.77.97-8.73,9.38-11.08,11.51-2.05,1.85-3.25,2.34-5.22,3.42-.98.54-4.53,5.25-5.84,6.37-7.06,6.02-15.61,11.77-23.39,17.64-22.59,17.04-44.31,30.99-69.32,44.94-3.05,1.7-4.23,1.85-7.41,2.98-.23.08-1.9,1.68-3.67,2.58-13.03,6.66-25.9,12.14-39.4,17.66-6.11,2.5-17.05,8.15-22.75,9.41-16.22,3.59-32.98,12.41-50.14,14.12-5.27.52-10.05,2.32-15.05,3.51-1.72.41-4.26-.42-5.85,0-.66.17-.6,1.47-1.61,1.91-2.97,1.28-21.85,4.47-25.72,4.85-4.11.41-9.01-.51-12.91-.02-1.3.16-.65,1.3-1.95,1.46-3.48.44-9-.77-12.14-.04-7.5,1.76-12.05.39-19.19,1.29-1.3.16-.65,1.3-1.95,1.46-10.81,1.36-47.68,1.36-58.49,0-1.3-.16-.65-1.3-1.95-1.46-4.74-.6-10.96.7-15.71.11-1.3-.16-.65-1.3-1.95-1.46-2.57-.32-6.39.59-8.75.04-.55-.13-.18-1.23-1.44-1.4-7.34-.96-12.98,1.15-20.9-1.37-11.05-3.52-22.97-4.3-34.03-6.73-.54-.12-.18-1.24-1.43-1.4-3.78-.47-11.7-.56-14.86-1.32-3.39-.81-8.62-2.82-13.57-4.08-11.53-2.94-23.8-7.98-34.97-12.12-7.17-2.66-13.08-4.41-19.62-7.08-36.27-14.81-76.54-37.22-109.71-60.88-67.66-48.25-125.47-116.2-163.55-188.06-4.63-10-12.7-21.12-14.9-31.29-.13-.59-2.54-1.75-2.67-2.34-1.26-5.84-4.36-10.65-6.75-16.36-3.91-9.36-7.65-19.61-11-30.11-1.35-4.25-4.54-12.23-5.36-15.93-3.16-14.29-9.09-27.67-12.15-43.39-1.78-9.15-3.41-17.44-5.57-26.35-2-8.25-1.56-15.82-2.6-23.84-.16-1.26-1.27-.89-1.4-1.44-.43-1.82.23-4.52-.05-6.62-5.18-37.81-6.31-76.2-4.09-115.45,2.91-8.32,1.59-19.55,2.72-28.5.16-1.3,1.3-.65,1.47-1.94.7-5.56-.81-12.85-.11-18.41.16-1.3,1.3-.65,1.47-1.94.99-7.83.21-17.24,1.25-25.2.16-1.26,1.27-.89,1.4-1.44.59-2.52-.4-6.68-.04-9.42.16-1.26,1.27-.89,1.4-1.44.63-2.66.65-5.2,1.36-8.14.9-3.74.39-11.21,1.39-15.36.07-.31,2.62-4.69,2.69-5,.61-2.68-.41-5.38,4.08-4.97Z"/>
  <path class="cls-1" d="M888.68,172.86c-2.14,2.63-12.11,1.21-16.12,1.86-6.94,1.12-12.6,7.69-17.29,12.58-6.63,6.92-14.64,15.06-15.27,25.12,6.49.06,12.87.94,19.39.71,24.86-.88,44.38-.75,69.24.64,45.2,2.52,91.08,1.96,135.61,9.71,31.14,5.41,78.77,12.75,102.75,33.71,4.03,3.52,11.82,10.59,11.81,16.06,0,8.02-10.06,1.9-14.56,1.6-13.58-.89-42.43,13.55-52.62,22.73-38.7,34.85-44.37,70.35-39.37,120.8,1.22,12.31,2.94,27.25,6.45,39.02,1.14,3.83,5.38,11.86,5.64,14.76.21,2.29-1.98,4.85-4.28,4.99-3.61.22-22.25-11.56-28.72-13.44-38.49-11.2-73.6-2.09-99.98,27.95-15.52,17.68-23.01,46.91-25.7,70-1.51,13.03,1.06,26.27.64,39.26-.1,3.1-2.67,4.85-5.66,4.32s-4.22-4.39-5.95-6.33c-9.71-10.83-20.88-25.02-33.05-32.8-4.75-3.04-12.53-5.79-17.72-7.53s-8.53-1.55-13.73-.41c-38.66,8.46-46.65,29.58-63.5,61.41s-28.14,64.8-55.65,90.29c-4.02,3.73-19.62,17.54-23.62,19.15-4.65,1.88-9.25-.18-6.94-5.58,1-2.33,9.86-9.58,12.22-12.22,26.61-29.75,31.3-66.27,45.32-101.97,8.42-21.45,15.31-34.59,19.99-58.07,9.37-47.04.53-95.45,14.82-141.28,6.17-19.8,18.8-36.89,26.26-55.87,1.56-3.97,2.85-13.43,6.29-15.43s6.03.6,6.87,4.07c2.51,10.44,1.98,23.19,4.57,34.11,5.04,21.27,16.31,42.45,22.4,63.12,3.39,11.48,5.1,24.2,8.15,35.96,4.7,18.11,10.74,43.55,17.62,60.44,2.38,5.85,18.11,28.26,22.65,33.69.44.53.89,1.33,1.63,1.42-2.66-13.04-.31-26.53-1.43-39.62-1.67-19.47-9.23-40.56-12.61-60.02-6.54-37.67-10.98-77.05-13.79-115.16-1.01-13.66.42-28.75-1.37-42.06-.75-5.58-4.83-14.64-4.77-19.03s4.42-7.54,8.14-4.7c44.57,36.61,90.95,70.76,135.17,107.86,2.34,1.96,4.4,4.96,6.82,6.75,5.38,3.98,13.43,6.5,19.2,9.99,5.05,3.05,9.99,7.96,15.38,10.75.68-.74-6.24-10.72-7.05-12.29-5.33-10.31-6.97-19.1-15-28.44-8.98-10.43-20.86-21.05-30.55-31.23-20.53-21.57-39.59-41.06-61.15-61.72-12.97-12.42-23.89-26.79-37.97-38.06-2.17-2.96-1.23-7.09,2.66-7.48,9.72,1.19,19.46,3.32,29.22,4.12,40.01,3.28,79.1-4.15,118.8-6.13,10.54-.53,21.06,1.3,31.6.7l-9.49-2.38c-48.44-8.22-98.04-9.14-147-10.53-31.16-.89-62.5.85-93.4-4.05.72,20.73,2.29,42.75-2.38,63.12-2.72,11.85-9.3,25.76-15.16,36.42-15.19,27.63-48.81,76.18-85.88,67.95-5.78-1.28-7.65-9.03-3.19-13.09,9.07-7.85,19.67-13.88,29.14-21.1,14.19-10.82,39.51-43.93,46.07-60.5,8.08-20.41,14.39-56.64,10.04-78.26-3.62-18.02-18.1-32.73-.38-49.85,16.18-15.64,30.01-10.11,49.32-8.54,1.42.11,2.98-.8,4.68-.67,3.08.23,13.43.91,15.26,2.45,1.67,1.41,1.86,4.55.49,6.23Z"/>
  <path class="cls-1" d="M378.91,230.73c-12.72,2.01-25.46,3.1-38.36,3.4-38.7.89-77.87,1.76-116.78,3.41-32.59,1.38-74.26,2.47-105.29,12.17-1.22.38-3.88.84-4.4,2.04,5.67-.48,11.1-2.55,16.73-3.29,24.72-3.28,45.58.75,69.86,2.62,32.37,2.49,63.35,3.85,95.66-.07,6.2-.75,19.73-6.35,15.07,5.56-14.78,11.92-26.37,26.97-40.1,40-5.09,4.82-10.91,9.07-15.99,13.88-18.01,17.09-33.06,37.82-50.91,54.99-9.46,9.09-25,20.12-30.22,32.24-3.43,7.98-5.27,16.91-8.17,25.08,3.5-1.55,6.5-3.96,9.84-5.77,5.58-3.02,13.34-5.62,18.31-8.85,3.35-2.17,7.25-6.5,10.58-9.1,11.55-9.03,23.95-17.88,34.96-27.49,10.11-8.83,19.15-18.96,29.55-27.48,13.06-10.7,28.16-19.78,41.67-30.29,8.85-6.88,17.53-14.15,25.89-21.63,13.08-1.48,5,12.81,3.69,19.29-1.37,6.8-.6,12.71-.96,19.4-2.79,52.29-9.01,102.29-17.88,153.82-2.97,17.27-8.24,34.23-8.66,51.8-.26,10.63-1.42,20.09-2,30.52-.12,2.14.05,4.3,0,6.44,5.25-5.38,8.13-12.96,12.2-19.36,4.27-6.72,10.13-12.76,12.93-20.33,8.39-22.7,9.71-46.98,16.11-69.41,10.34-36.24,27.89-65.65,33.37-104.42.55-3.91.82-16.37,3.11-18.6,7.77-7.55,10.79,11.92,12.47,16.1,9.93,24.73,22.65,36.15,25.24,65.03,3.91,43.68,5.8,87.85,7.5,131.62,1.23,31.5.43,57.92,11.69,88.08,9.51,25.46,25.12,47.88,35.16,72.76,2.33,5.79.1,9.99-6.16,6.84-3.36-6.58-8.49-11.94-12.47-18.08-11.77-18.19-20.97-37.2-33.8-55.13-13.19-18.45-46.22-59.48-64.85-70.23-10.01-5.78-18.36-7.77-29.88-2.97-6.32,2.63-28.04,23.23-31.14,29.28-1.48,2.89-1.51,8.18-6.61,7.38-5.7-.9-3-5.59-2.74-8.2,5.53-54.56-7.03-115.43-63.44-137.42-19.56-7.62-49.07-6.69-68.32,1.96-4.6,2.07-18.67,11.39-22.47,10.77-7.43-1.22-.33-12.65.99-16.62,9.39-28.24,12.68-83.04,3.39-111.32-6.1-18.59-16.05-32.32-29.5-45.83-8.05-8.08-23.34-19.55-34.32-22.73-2.57-.74-5.15-1.61-7.35-2.29-4.82-1.49-11.81-3.79-16.76-3.46-3.76.25-10.41,4.12-13.23,1.67-5.57-4.84,7.14-16.47,10.83-19.66,24.37-21.15,74.83-28.6,106.5-34.05,34.91-6,66.73-5.15,101.67-6.97,28.89-1.51,56.35-4.95,85.56-4.13,4.2.12,9.26,1.27,13.52,1.42,6.52.22,12.89-.76,19.39-.71.46-.46-.99-5.46-1.33-6.47-2.28-6.76-20.14-26.67-26.58-29.77-6.98-3.35-12.92-.29-18.47-1.9-2.82-.82-4.28-4.86-2.15-7.3,1.57-1.8,12.52-2.53,15.58-2.79,1.67-.14,3.32.6,4.65.47,14.76-1.38,21.99-4.47,37.13.59,10.92,3.65,19.89,16.37,19.72,27.85s-5.93,19.48-8,30.7c-4.32,23.45,2.61,64.88,14.22,85.86s35.05,50.35,54.24,62.52c5.56,3.52,19.38,8.9,19.68,16.36.37,8.94-13.98,9.1-20.01,8.39-35.75-4.2-72.58-62.59-83.44-93.73-8.41-24.12-7.14-49.3-5.93-74.5ZM113.4,251.78c-.95-.49-1.81.43-1.35.66.95.49,1.81-.43,1.35-.66Z"/>
  <path class="cls-1" d="M572.95,537.65c1.14,1.22.67,4.47,1.38,6.43,5.74,15.72,34.51,21.67,48.29,14.7,5.19-2.63,14.39-12.04,19.94-10.99,3.76.71,5.3,5.12,8.65,6.66,2.79-6.65,10.43-16.78,18-17.64,6.86-.78,20.64,1.9,25.84-2.67,1.45-1.27,2.04-3.17,3.73-4.41,2.98-2.19,7.77-2.04,10.34-3.74,1.17-.78,3.05-4.52,4.91-6.12,6.76-5.81,17.34-6.93,24.73-1.67,6.9,4.92,4.22,10.54,4.8,17.59,1.06,12.8,1.82,24.38.7,37.36-3.22,14.14-1.54,34.57-5.65,47.96-.48,1.56-1.5,3.67-2.84,4.62-1.73,1.22-4.3.99-4.97,1.48s-1.27,5.32-3.55,6.98c-1.87,1.36-3.92,1.07-6.1,1.03-2.37,17.31-9.29,34.21-18.46,49.08-2.59,4.19-8.87,14.91-13.86,15.4-2.21.21-4.77-2.11-6.26-1.23-.23.14-.71,1.66-1.43,2.28-3.59,3.09-8.49,9.37-11.92,11.18-4.26,2.25-7.26.88-11.56,1.34-10.4,1.11-13.13,12.66-21.03,13.59-2.35.28-5-.44-7.32.15-3.7.95-10.23,9.07-11.87,12.57s-2.27,10-4.35,12.62c-4.69,5.95-14.26-2.87-17.02-7.24-3.5-5.55-6.48-13.84-8.02-20.15-4.32.37-5.85,5.05-10.52,5.46-3.66.32-4.9-1.31-7.67-1.87-7.12-1.44-13.4-2.9-20.2-5.6-3-1.19-5.26-2.39-6.81-5.41-.85-1.67-1-4.3-2-5.46-.77-.89-4.64-2.31-6.45-3.74-3.12-2.46-7.21-6.9-8.88-10.49-3.4,1.21-5.9,2.74-9.78,1.98-4.97-.97-11.86-17.89-11.91-23.04-6.18.25-10.37-4.91-11.49-10.58-15.34-.47-19.34-19.27-21.46-31.49-.5-2.88-1.63-6.19-.31-8.84-6.73,2.8-16.62,1.92-18.18-6.61-1.37-7.49-.42-20.8-.81-29.05-.86-18.17-1.97-36.05-2.04-54.29-.02-6.13-1.21-14.6.96-20.7.88-2.48,4.62-6.59,7.49-6.64,7.63-.14,8.15,12.3,18.86,10.59,5.15-.82,7.42-5.65,10.51-6.46,8.2-2.15,7.18,5.42,8.81,10.54,1,3.15,7.68,14.57,10.81,14.91,7.1.77,8.72-16.59,16.81-11.96,3.73,2.13,4.95,15.75,6.32,20.14,4.66,14.88,14.43,18.6,26.36,7.61,5.15-4.74,4.68-8.97,7.66-14.06,1.84-3.15,5.89-5.15,8.78-2.07Z"/>
  <path class="cls-1" d="M531.99,172.77c4.32,5.01,9.06,9.76,13.28,14.89,3.69,4.49,6.56,9.65,10.65,13.84,6.9-2.48,14.01-4.38,20.96-6.72,2.48-.84,10-4.53,11.65-4.59,3.2-.11,7.27,5.65,9.42,5.95,3.8.52,14-4.01,18.3-4.68,3.6-.02,5.83,4.33,8.32,6,3.13,2.09,10.06,5.36,13.74,7.16,2.77,1.35,5.05,2.97,8.36,2.37,3.96-5.55,7.6-11.49,11.76-16.9,12.74-16.61,26.51-32.29,39.64-48.61,14.14-17.58,26.53-36.41,43.53-51.51,2-1.06,7.99-1.79,9.84-.44,1.15.83,4.42,6.63,4.76,8.14.84,3.79,1.34,11.19,1.64,15.33,1.22,17.06,1.32,37.51-2.07,54.25-4.05,20.05-24.46,48.87-37.03,65.47-1.35,1.78-4.65,3.95-5.02,5.84-.76,3.87.65,8.13,3.1,11.12l13.86,11.59c-4-.78-8.1,4.27-10.82,5.14-1.32.42-3.22,0-3.98.44-.41.23-3.71,5.73-5.91,7.32-3.57,2.59-13.48,3.56-7.81,9.5-5.29-.09-4.18,4.33-3.39,8.15l-3.47.95c-1.02,1.17-.33,2.8-.63,4.01-.14.55-1.21.44-1.33.94-2.17,9.22,16.13,36.31,27.16,37.54-2.2,1.95-7.1,5.28-9.69,6.25-2.44.91-7.03-.08-8.32,2.57-1.97,4.03,8.18,12.84,6.45,14.9-4.38.56-10.14,3.85-14.52,3.42-1.66-.16-6.24-3.5-8.56-4.39-6.65-2.56-23.24-5.24-30.15-4.37-5.01.63-18.22,6.34-23.06,8.85-14.85,7.68-27.38,21.16-45.89,15.83-10.82-3.11-18.63-12.2-30.05-15.44-2.53-.72-5.62-.62-8.02-1.49-3.11-1.13-7.12-4.39-10.61-5.69-7.19-2.66-15.98-2.68-23.49-1.26-11.68,2.2-13.08,9.16-27.29,7.22-1.13-.15-8.26-2.5-6.11-4.04,4.08-.95,14.1-9,13.69-13.12-.51-5.06-6.89-2.97-9.68-3.1-1.73-.08-3.5-.62-5.21-.94-1.15-.21-13.66-3.25-12.77-4.53,6.37-3.88,14.31-11.56,17.09-18.55,2.56-6.43,3.5-13.05,2.49-19.62-.16-1.06-1.54-2.06-1.18-3.44.35-1.3,2.16-1.46,2.68-2.29,1.93-3.09-.63-6.56-4.11-6.32-1.14-1.26,5.57-3.79,2.36-8.13-1.18-1.6-5.08-1-5.64-1.49-.26-.23-.22-1.58-.77-2.26-1.34-1.65-4.13-3.43-4.94-5.27-.76-1.73-.49-4.48-1.57-5.9-1.57-2.06-9.7-2.56-10.53-7.17l5.45-5.43c4.16-5.01,8.05-14.52,7.47-21.02s-6.1-9.84-9.65-14.78c-7.35-10.23-16.99-25.03-23.05-36.01-6.95-12.61-7.4-20.38-8.03-34.73s3.37-46.7,13.91-57.34c3.86-3.89,6.88-.8,10.48,1.74,17.13,12.09,34.27,40.79,48.28,57.62,7.69,9.24,16.17,18.09,24.03,27.22ZM494.35,204.27c-2.75-1.25-16.56-3.39-12.27,2.43,5.46,2.09,10.26,5.89,15.53,8.23s28.28,8.18,33.8,7.7c2.87-.25,9.28-1.69,7.49-5.49-4.8-6.7-9.7-13.34-14.98-19.66-17.63-21.09-35.74-39.83-52.93-61.79-3.01-3.85-6.06-11.58-13.13-8.27s6.3,13.68,8.26,15.85c3.33,3.68,6.13,7.85,9.91,11.13-6.35.59-12.87-2.54-19.37-1.74-2.05.25-1.85,3.19-.26,4.41l15.56,12.27-9.11.26c-.82.59-.55,3.3-.05,4.15,1.24,2.1,14.4,8.56,16.63,11.88-2.01,1.56-11.32-2.59-10.09,1.93.55,2.02,8.09,3.81,10.55,5.08s5.93,3.73,8.19,5.39c.79.58,7.46,5.14,6.3,6.26ZM722.52,162.87c3.68-6.61,9.14-12.93,12.77-19.47,2.95-5.31,5.9-12.38-3.64-9.74-16.25,17.95-27.84,40.19-43.1,58.71-5.49,6.67-15.13,16.99-21.7,22.42-2.67,2.21-15.03,8.15-10.71,12.39,7.51,1.78,15.29,3.76,23.09,2.7,4.14-.56,24.15-7.86,27.85-10,1.07-.62.68-1.85,1.35-2.55,1.25-1.3,6.28-1.69,6-5.24-.35-4.45-11.02,2.19-13.97,1.01l-.34-1.35c4.23-2.61,8.11-5.72,12.28-8.44,2.26-1.48,10.15-5.27,11.12-6.53.42-.55,1.14-1.64,1-2.28-2.04-2.97-5.28-1.12-8.09-1.43,1.59-4.38,15.6-10.45,16.65-12.55,3.28-6.55-8.25-.83-10.53-1.02,2.02-2.94,3.87-6.04,6.13-8.81,1.18-1.45,8.12-8.26,8.18-8.85.74-7.35-12.67,2.31-14.31,1.02ZM541.75,261.44c-25.66,2.02-22.88,41.92,3.18,39.86s22.55-41.88-3.18-39.86ZM642.93,261.44c-25.72,2.02-22.81,41.9,3.18,39.86,25.46-1.99,22.56-41.89-3.18-39.86ZM611.15,319.64c-.27-3.24,2.68-7.21,1.91-10.34-.36-1.46-8.53-12.2-9.85-12.59-4.46-1.3-14.84,1.73-20.12.65-.53.18-6.71,7.94-6.94,8.67-1.06,3.32-.14,8.8.38,12.25,8.22.37,5.98-8.76,10.89-11.85,6.48-4.08,13.39.65,16.4,6.63.62,1.23.93,3.78,1.4,4.37.37.46,5.49,2.66,5.94,2.21ZM603.96,331.58c-1.94-2.3-1.97-3.86-5.34-5.19-14.55-5.72-16.45,10.12-26.4,15.75-1.73.98-4.9,2.65-6.85,2.56s-10.85-5.86-9.12.24c1.21,4.26,7.78,4.24,9.23,5.4.29.23,2.8,5.63,3.23,6.61.78,1.77-.29,4,2.72,4.61,2.08-.16,2.15-6.92,2.69-8.69,1.64-5.34,5.13-8.03,8.1-12.26,4.1-5.86,4.34-11.98,14.16-9.96,4.3.88,4.14,3.98,6.05,6.85,1.01,1.51,2.73,3.11,3.55,4.6,3.1,5.64,4.71,13.65,6.52,19.86-.08.73,1.33.55,1.67.4,1.6-.68,4.04-8.77,5.77-10.52,1.89-1.92,4.55-.33,6.81-1.34,2.89-1.29,4.31-6.92.38-6.46-1.36.16-2.07,1.67-3.27,2.21-9.4,4.21-14.94-8.78-19.91-14.67Z"/>
  <path class="cls-1" d="M674.55,383.86c4.98,3.18,10.09,5.03,14.9,7.85,9.44,5.53,11.67,8.46,22.7,11.93,6.68,2.1,15.2,7.88,18.21,14.37,1.35,2.9,2.8,12.13,2.19,15.14-.69,3.43-4.6,5.32-4.66,5.69-.3,1.91,4.14,11.27,4.64,14.31,1.28,7.78-.93,17.51-4.25,24.61-7.42,15.87-29.14,18.85-43.47,10.87-2.62,4.75-4.29,9.66-7.79,13.91-13.29,16.15-36.46,18.02-52.64,5.05l-18.87,17.82c-10.54,1.36-18.61,4.29-27.65-3.2-5.13-4.24-12.16-11.42-14.94-17.31-10.53,5.46-18.54,7.61-30.23,4.09-13.43-4.04-22.98-13.25-28.13-26.18-8.28-1.06-15.64,2.56-24.16,1.75-3.96-.37-16.47-5.19-19.36-7.8-4-3.62-7.05-14.3-6.67-19.63.31-4.34,5.27-16.23,5.11-17.74-.12-1.12-4-3.06-4.48-6.13-.54-3.36.46-13.02,2.36-15.89,2.74-4.13,19.1-8.92,24.54-11.44,9.58-4.44,21.99-10.81,30.11-17.41,2.1-1.7,11.79-11.49,12.69-11.75,3.81-1.12,18.18,1.74,22.6,2.92,15.12,4.03,36.23,19.68,51.1,17.8,8.39-1.06,14.92-5.21,22.09-9.15s14.92-7.54,22.48-11.45c4.59-2.37,9.4-8.21,15.68-5.34,2.54,1.16,8.02,7.67,10.51,9.17,1.95,1.18,3.31,1.82,5.36,3.12Z"/>
  <path class="cls-1" d="M671.59,733.61l-.56,4.91c5.42,16.25,9.1,33.23,12.41,50.09,12.05,2.77,23.76,2.49,34.77,8.68,7.08,3.98,18.86,10.78,23.67,17.06,1.33,1.73,2.21,2.51.34,4.44-2.82,1.45-4.42-1.24-6.64-2.21-6.37-2.77-15.38-2.08-22.14-2.98-5.87-.78-11.58-2.28-17.4-3.3l7.66,15.75c2.11,7.06,3.49,14.41,5.72,21.42,1,3.14,6.24,13.73,5.56,15.99-1.48,4.94-8.56-6.94-9.46-8.02-6.94-8.38-13.17-15.06-18.86-24.58-2.33-3.89-3.61-8.66-6.91-11.75-3.68,17.72-.39,36.12-4.96,53.75-.28,1.07-.67,2.72-1.12,3.63-3.59,7.32-3.99-7.91-4.21-9.46-1.78-12.54-3.94-24.71-4.69-37.38-.29-4.82.27-9.79.02-14.62-3.26,3.51-8.02,6.82-11.23,10.15-4.26,4.43-9.91,11.14-13.88,15.99-2.08,2.54-7.22,11.3-9.13,12.59-.91.61-1.5.85-2.62.54l-1.81-2.25,10.44-24.85c5.37-5.68,6.51-13.66,12.17-19.39,2.12-2.15,13.34-10.45,13.9-12.24,1.77-5.62-8.42-24.65-9.9-31.94-.97-4.8-2.22-15.49-.52-19.86,1.3-3.34,16.86-12.65,19.37-10.17Z"/>
  <path class="cls-1" d="M515.41,813.68c.22,9.89,1.82,19.7,2.7,29.53.8,8.9,2.2,19.24,2.71,27.83.09,1.5-.02,9.04-2.2,5.57-3.83-6.11-9.49-21.53-11.32-28.71-3.01-11.81-1.34-22.39-3.46-34.22-1.05.17-1.28,1.26-1.68,2.05-7,13.74-12.17,28.42-18.78,42.31-1.23,2.59-5.99,12.99-8.39,13.35-1.65.25-2.13-4.07-2.39-5.1,2.32-11.08,2.48-22.68,4.25-33.77,1.44-9.02,7.04-17.4,10.69-25.62-4.53.41-8.92,1.3-13.25,2.7-7.06,2.28-16.36,6.28-23.4,9.18-3.24,1.34-6.07,4.56-9.56,3.43-2.96-2.09,3.24-8.55,4.78-10.24,8.3-9.17,19.05-16.45,31.12-19.8,4.19-1.17,20.19-2.67,22.2-4.96s3.13-13.47,4.06-16.98c2.24-8.47,6.07-17.85,7.56-26.43.33-1.92-1.1-3.98.72-5.49,4.46-2.83,17.97,4.17,19.08,9.99l-12.64,43.2c14.27,14.31,28.46,25.69,36.69,44.81.71,1.66,4.42,11.46,4.46,12.45.27,7.44-9.77-1.62-11.69-3.19-6.38-5.21-14.84-12.37-20.75-17.94-4.21-3.97-7.33-9.9-11.52-13.93Z"/>
  <path class="cls-1" d="M589.9,756.9c.21.08.29.91.73,1.08,3.86,1.49,13.03,4.96,16.77,4.84,7.24-.24,17.21-12.88,23.72-12.24,5.63.56,5.25,6.98,3.83,11.22-2.53,7.57-9.65,19-13.52,26.53-5.03,9.8-9.27,16.51-14.9,25.82-2.14,3.54-5.34,12.6-8.7,14.37-5.37,2.83-8.13-2.18-11.1-5.7-17.21-20.34-29.02-42.55-37.39-67.84-.8-6.05,3.86-5.99,8.55-5.8,12.27.51,20.97,3.49,32.02,7.72Z"/>
  <path class="cls-2" d="M370.73,236.21c.1.06,1.35,1.68,1.37,1.79.28,1.46-.27,3.11.04,4.48.13.6,1.55,0,1.41,2.15-.02.33-3.9,4.55-4.35,4.88-.53.39-1.74.04-2.29.44-7.92,5.75-16.79,12.51-24.45,19-.61.51-5.29,5.05-5.45,5.4-.38.85-.04,2.32-.22,2.5s-1.66-.16-2.5.22-8.27,8.96-9.91,10.44c-.44.4-1.85.04-2.29.44-3.96,3.61-7.34,8.17-11.29,11.78-.44.4-1.85.04-2.29.44-8.19,7.52-15.29,15.34-23.51,22.64-.45.4-1.84.04-2.29.44-10.08,8.94-18.21,16.35-28.52,24.43-11.78,9.23-23.8,19.09-35.31,28.5-9.69,7.93-18.52,18.18-28.52,25.79-2.3,1.75-2.87,4.46-6.75,5.21-2.06.39-4.96-3.79-4.3-6.31.12-.46,1.01-.47,1.1-.7.31-.8.13-1.78.45-2.28.67-1.05,16.48-17.15,17.63-17.66.82-.36,1.67-.18,2.53-.2v-2.71c.86-.02,1.71.16,2.53-.2.64-.28,5.94-6.64,7.19-7.73,2.42-2.1,8.33-5.74,11.17-8.14,4.27-3.62,7.72-7.65,11.92-10.86,5.77-4.4,11.88-9.03,17.66-13.57,2.81-2.21,9.23-6.3,11.8-8.58,1.44-1.28,7.81-8.76,8.55-9.08.82-.36,1.67-.18,2.53-.2v-2.71c3.51.42,5.88-4.45,8.37-6.57,13.33-11.35,26.14-23.16,39.39-35.29.44-.4,1.85-.04,2.29-.44,8.07-7.38,15.03-16.36,23.51-22.64,5.52-4.08,13.82-8.77,19.94-12.66.93-.59,1.54-3.21,2.9-2.44Z"/>
  <path class="cls-2" d="M370.76,280.96c-.71,3.99,3.18,6.89,2.79,11.22-.11,1.24-1.3.91-1.42,1.45-1.54,6.99-2.64,13.25-4.12,20.21-.68,3.21-1.45,6.98-2.46,9.41-1.87,4.54-.7,6.42-1.6,10.17-1.64,6.79-.43,10.58-1.29,17.14-.16,1.26-1.27.89-1.4,1.44-.41,1.77.18,4.23-.21,6.46-.26,1.5-2.52,4.52-2.57,4.91-.66,5.14.76,11.92.11,17.05-.05.41-2.77,4.25-2.82,4.66-.4,3.1.5,7.16.11,10.27-.16,1.3-1.3.65-1.47,1.94-.99,7.83-.21,17.24-1.25,25.2-.16,1.26-1.27.89-1.4,1.44-1.03,4.35-.71,11.55-1.32,16.2-.17,1.26-1.27.89-1.4,1.44-1.15,4.88-1.68,10.33-2.72,14.93-2.76,12.24-4.05,24.82-6.82,37.08-.58,2.59-3.53,8.29-4.05,10.43-.8,3.3-.6,9.34-1.39,12.64-1.48,6.17-3.96,12.49-5.43,19-.07.3-2.28,1.01-1.35,3.17-1.57-.12-3.42.29-4.94-.02-.22-.04-3.13-2.96-3.18-3.18-.21-.99-.24-3.53-.01-4.48.12-.51,1.2-.42,1.33-.93.41-1.72-.38-4.13.03-5.85.09-.38,2.6-5.98,2.69-6.36,1.26-5.6,1.41-12.53,2.74-18.07.12-.52,1.22-.41,1.33-.93,2-9.09,4.82-18.39,6.79-27.14,2.78-12.41,3.62-23.07,5.48-35.13,1.14-7.4,3.15-14.17,4.06-21.73,1.12-9.33,1.45-17.76,2.64-27.21.16-1.3,1.3-.65,1.47-1.94,1.11-8.81.62-13.92,2.65-22.57,1.02-4.34.69-12.81,1.32-17.56.17-1.26,1.27-.89,1.4-1.44.69-2.93.51-5.9,1.36-9.5.78-3.31-1.08-5.8,1.15-9.56s1-2.88,1.63-7.22c.57-3.88,1.99-8.7,2.65-11.71s.8-5.41,1.39-8.55c.1-.52,2.4-1.77,2.49-2.01.44-1.25-.03-2.36.22-3.43.26-1.13,4.42-6.1,4.29-8.39l2.48-2.94Z"/>
  <path class="cls-2" d="M899.07,536.12l-6.4.08c-.76-.51-.15-1.71-.43-2.25-1.94-3.74-4.48-11.69-5.21-16.67-.53-3.61.02-3.93-1.32-7.16-2.21-5.35-2.77-12.21-4.33-18.3-.27-1.04-2.61-7.21-2.74-8.24-.31-2.36.57-5.89.03-8.05-.11-.46-1.01-.46-1.11-.7-2.82-6.79-2.71-13.23-4.35-20.98-.12-.59-1.2-.28-1.36-1.49-.36-2.73.64-6.93.04-9.42-.1-.4-2.32-4.67-2.55-6.39-.35-2.71.34-6.36-.17-8.54-1.52-6.44-3.22-13.98-4.08-21.14-.27-2.24.48-5.35,0-7.36-2.35-9.98-2.66-21.3-4.1-31.99-.4-2.98-.85-9.39-1.34-11.45-.13-.55-1.23-.18-1.4-1.44-.45-3.46.78-9.02.04-12.13-1.26-5.25-2.92-10.68-4.01-17.15-1.95-11.54-3.83-22.93-6.99-33.05-.54-1.74-1.85-2.91-1.94-4.92-.13-3,2.44-7.17,2.09-10.51l3.85,2.93c1.23,3.51,3.1,6.95,4.52,10.42,1.68,4.09,1.54,6.34,2.5,10.62.69,3.05,3.31,8.71,4.05,11.79.64,2.68-.6,7.2.04,9.91.07.31,2.38,3.47,2.66,5.61.46,3.54-.68,9.03.05,12.05.13.52,1.22.41,1.34.93,1.66,7.54,2.91,16.69,4.05,25.02,2.28,16.72,2.73,34.95,6.88,51.49,1.46,15.62,3.44,31.41,6.75,46.07,4.03,17.86,9.42,36.91,13.54,55.8.27,1.26-.26,2.83.02,3.94.18.72,1.37.37,1.37.44v12.22Z"/>
  <path class="cls-2" d="M847.46,234.81c2.27-.85,2.65,1.01,2.94,1.13,4.15,1.76,2.73,2.09,5.42,4.08,4.69,3.47,10.99,6.35,15.87,9.94,5.82,4.29,11.18,10.15,16.87,15.4,8.6,7.92,17.91,16.75,27.02,24.88,4.85,4.33,12.4,9.66,17.23,14.01,3.49,3.15,6.43,7.28,9.93,10.42,20.75,18.59,43.55,34.01,64.71,52.08,9.81,8.38,22.44,19.68,29.92,30.09,1.16,1.62,3.96,2.25,2.73,4.75-1.02.12-2.65,2.84-2.98,2.9-4.27.69-12.8-10.44-16.04-13.37-.44-.4-1.85-.04-2.29-.44-5.86-5.29-10.77-10.98-16.72-15.85-21.06-17.22-43.73-33.7-64.76-52.01-9.65-8.4-18.39-17.57-28.47-25.85-1.06-.87-3.88-4.58-4.53-4.94-6.13-3.36-9.65-8.72-15.27-13.74-1.39-1.24-7.94-5.12-8.78-7.01-.38-.85-.04-2.32-.22-2.5s-1.66.16-2.5-.22c-.95-.42-6.92-7.77-8.55-9.08-3.41-2.76-9.49-5.92-13.15-8.58-1.47-1.06-3.2-2.06-4.08-2.71-.55-.41-2.64-2.86-3.22-3.57-.28-.35-1.07-.23-1.07-.29v-9.5Z"/>
  <path class="cls-2" d="M650.36,268.94c.23.09,1.35,2.09,1.73,2.3.74.4,1.94-.02,2.38.32.13.1.76,2.29,1.26,3.13.4.66,1.46.79,1.57,1.3.3,1.39.28,7.85.07,9.41-.15,1.15-1.03.79-1.35,1.53-.21.49.08,1.39-.28,1.94-3.67,5.71-12.65,7.1-18.58,4.04-.34-.18-5.23-5.06-5.41-5.4-2.61-5.04-1.84-9.18.93-13.84,1.35-2.28,3.19-2.77,5.04-3.66.69-.33.51-1.02,1.56-1.34,1.95-.61,9.32-.4,11.07.26Z"/>
  <path class="cls-2" d="M549.86,268.95c.21.07,1.43,2.18,1.72,2.31.85.38,2.32.05,2.5.23s-.15,1.65.23,2.5c.17.39,2.37,1.48,2.49,2.04.31,1.52.3,7.75.08,9.39-.15,1.15-1.03.79-1.35,1.53-.21.49.08,1.39-.28,1.94-.16.24-3.75,3.99-4.02,4.08-1.24.44-2.35-.03-3.45.21-.56.12-.17,1.24-1.44,1.4-5.09.66-9.81-1.19-13.74-4.35-1.36-4.54-3.69-5.68-2.91-10.94.56-3.73,4.75-9.57,8.64-10.36,1.96-.4,9.84-.55,11.52.01Z"/>
</svg>